<?xml version="1.0" encoding="UTF-8" standalone="no"?>
<svg
   version="1.2"
   width="342mm"
   height="342mm"
   viewBox="0 0 34200 34200"
   preserveAspectRatio="xMidYMid"
   fill-rule="evenodd"
   stroke-width="28.222"
   stroke-linejoin="round"
   xml:space="preserve"
   id="svg265"
   sodipodi:docname="MaryMotherOfJesus-ColourRemix.svg"
   inkscape:version="1.2.2 (732a01da63, 2022-12-09, custom)"
   xmlns:inkscape="http://www.inkscape.org/namespaces/inkscape"
   xmlns:sodipodi="http://sodipodi.sourceforge.net/DTD/sodipodi-0.dtd"
   xmlns="http://www.w3.org/2000/svg"
   xmlns:svg="http://www.w3.org/2000/svg"
   xmlns:ooo="http://xml.openoffice.org/svg/export"><sodipodi:namedview
   id="namedview267"
   pagecolor="#ffffff"
   bordercolor="#000000"
   borderopacity="0.25"
   inkscape:showpageshadow="2"
   inkscape:pageopacity="0.0"
   inkscape:pagecheckerboard="0"
   inkscape:deskcolor="#d1d1d1"
   inkscape:document-units="mm"
   showgrid="false"
   inkscape:zoom="0.62896564"
   inkscape:cx="645.50426"
   inkscape:cy="646.29921"
   inkscape:window-width="1846"
   inkscape:window-height="1016"
   inkscape:window-x="0"
   inkscape:window-y="0"
   inkscape:window-maximized="1"
   inkscape:current-layer="svg265" />
 <defs
   class="ClipPathGroup"
   id="defs81">
  <clipPath
   id="presentation_clip_path"
   clipPathUnits="userSpaceOnUse">
   <rect
   x="0"
   y="0"
   width="34200"
   height="34200"
   id="rect75" />
  </clipPath>
  <clipPath
   id="presentation_clip_path_shrink"
   clipPathUnits="userSpaceOnUse">
   <rect
   x="34"
   y="34"
   width="34132"
   height="34132"
   id="rect78" />
  </clipPath>
 </defs>
 <defs
   class="TextShapeIndex"
   id="defs85">
  <g
   ooo:slide="id1"
   ooo:id-list="id3 id4 id5 id6 id7 id8 id9 id10 id11 id12 id13 id14 id15 id16 id17 id18 id19 id20 id21"
   id="g83" />
 </defs>
 <defs
   class="EmbeddedBulletChars"
   id="defs117">
  <g
   id="bullet-char-template-57356"
   transform="scale(0.00048828125,-0.00048828125)">
   <path
   d="M 580,1141 L 1163,571 580,0 -4,571 580,1141 Z"
   id="path87" />
  </g>
  <g
   id="bullet-char-template-57354"
   transform="scale(0.00048828125,-0.00048828125)">
   <path
   d="M 8,1128 L 1137,1128 1137,0 8,0 8,1128 Z"
   id="path90" />
  </g>
  <g
   id="bullet-char-template-10146"
   transform="scale(0.00048828125,-0.00048828125)">
   <path
   d="M 174,0 L 602,739 174,1481 1456,739 174,0 Z M 1358,739 L 309,1346 659,739 1358,739 Z"
   id="path93" />
  </g>
  <g
   id="bullet-char-template-10132"
   transform="scale(0.00048828125,-0.00048828125)">
   <path
   d="M 2015,739 L 1276,0 717,0 1260,543 174,543 174,936 1260,936 717,1481 1274,1481 2015,739 Z"
   id="path96" />
  </g>
  <g
   id="bullet-char-template-10007"
   transform="scale(0.00048828125,-0.00048828125)">
   <path
   d="M 0,-2 C -7,14 -16,27 -25,37 L 356,567 C 262,823 215,952 215,954 215,979 228,992 255,992 264,992 276,990 289,987 310,991 331,999 354,1012 L 381,999 492,748 772,1049 836,1024 860,1049 C 881,1039 901,1025 922,1006 886,937 835,863 770,784 769,783 710,716 594,584 L 774,223 C 774,196 753,168 711,139 L 727,119 C 717,90 699,76 672,76 641,76 570,178 457,381 L 164,-76 C 142,-110 111,-127 72,-127 30,-127 9,-110 8,-76 1,-67 -2,-52 -2,-32 -2,-23 -1,-13 0,-2 Z"
   id="path99" />
  </g>
  <g
   id="bullet-char-template-10004"
   transform="scale(0.00048828125,-0.00048828125)">
   <path
   d="M 285,-33 C 182,-33 111,30 74,156 52,228 41,333 41,471 41,549 55,616 82,672 116,743 169,778 240,778 293,778 328,747 346,684 L 369,508 C 377,444 397,411 428,410 L 1163,1116 C 1174,1127 1196,1133 1229,1133 1271,1133 1292,1118 1292,1087 L 1292,965 C 1292,929 1282,901 1262,881 L 442,47 C 390,-6 338,-33 285,-33 Z"
   id="path102" />
  </g>
  <g
   id="bullet-char-template-9679"
   transform="scale(0.00048828125,-0.00048828125)">
   <path
   d="M 813,0 C 632,0 489,54 383,161 276,268 223,411 223,592 223,773 276,916 383,1023 489,1130 632,1184 813,1184 992,1184 1136,1130 1245,1023 1353,916 1407,772 1407,592 1407,412 1353,268 1245,161 1136,54 992,0 813,0 Z"
   id="path105" />
  </g>
  <g
   id="bullet-char-template-8226"
   transform="scale(0.00048828125,-0.00048828125)">
   <path
   d="M 346,457 C 273,457 209,483 155,535 101,586 74,649 74,723 74,796 101,859 155,911 209,963 273,989 346,989 419,989 480,963 531,910 582,859 608,796 608,723 608,648 583,586 532,535 482,483 420,457 346,457 Z"
   id="path108" />
  </g>
  <g
   id="bullet-char-template-8211"
   transform="scale(0.00048828125,-0.00048828125)">
   <path
   d="M -4,459 L 1135,459 1135,606 -4,606 -4,459 Z"
   id="path111" />
  </g>
  <g
   id="bullet-char-template-61548"
   transform="scale(0.00048828125,-0.00048828125)">
   <path
   d="M 173,740 C 173,903 231,1043 346,1159 462,1274 601,1332 765,1332 928,1332 1067,1274 1183,1159 1299,1043 1357,903 1357,740 1357,577 1299,437 1183,322 1067,206 928,148 765,148 601,148 462,206 346,322 231,437 173,577 173,740 Z"
   id="path114" />
  </g>
 </defs>
 
 <g
   inkscape:groupmode="layer"
   id="layer1"
   inkscape:label="Layer 1"><path
     fill="rgb(246,249,212)"
     stroke="none"
     d="M 10304,15121 C 10360,15153 10413,15186 10461,15218 10437,15181 10383,15150 10304,15121 Z"
     id="path126" /><path
     fill="rgb(255,0,0)"
     stroke="none"
     d="M 33132,14753 C 33244,15520 33303,16303 33303,17100 33303,19321 32853,21440 32039,23371 32151,22391 32368,20367 32396,19132 L 33132,14753 Z"
     id="path133" /><path
     fill="rgb(255,0,0)"
     stroke="none"
     d="M 32898,13496 L 32157,17964 C 32043,17871 31889,17782 31714,17698 31664,16491 31452,11279 31377,9444 32055,10705 32572,12064 32898,13496 Z"
     id="path140" /><path
     fill="rgb(255,0,0)"
     stroke="none"
     d="M 28807,12900 C 28289,12690 27738,12466 27251,12201 L 27542,4720 C 28711,5708 29739,6858 30590,8135 30600,9204 30615,11831 30532,13748 30093,13421 29479,13172 28807,12900 Z"
     id="path147" /><path
     fill="rgb(246,249,212)"
     stroke="none"
     d="M 28731,23213 C 27758,25248 26017,28403 25755,28889 25407,29536 24737,30605 23077,31153 22140,31326 20528,31437 19662,30419 19407,30118 19165,29864 18928,29636 18959,29624 18989,29611 19019,29598 19066,29621 19117,29644 19172,29669 19182,29677 19192,29684 19202,29692 19288,29758 19373,29835 19458,29916 19627,30077 19793,30250 19972,30417 20061,30500 20155,30581 20256,30657 L 20333,30713 20417,30764 C 20443,30782 20478,30794 20508,30809 20540,30822 20572,30838 20603,30845 20851,30922 21094,30944 21338,30956 21824,30971 22308,30926 22776,30810 23243,30698 23700,30505 24064,30195 23680,30481 23221,30639 22757,30719 22292,30803 21816,30814 21351,30770 21120,30744 20886,30704 20682,30626 20655,30618 20635,30605 20612,30594 20590,30581 20567,30574 20545,30556 L 20479,30509 20415,30456 C 20330,30383 20248,30303 20168,30217 20080,30124 19994,30027 19907,29929 20062,29967 20220,29992 20371,29996 21117,30014 22105,29542 22292,29262 22479,28982 22653,27932 22833,27266 22292,27791 22255,28225 21210,28840 20244,29410 19181,29111 18452,28930 18123,28756 17840,28536 17617,28333 L 17066,27734 C 17329,27846 17725,27984 17856,28068 17906,28100 18636,28479 19326,28516 20016,28553 22217,27572 22404,27447 22591,27322 22973,26632 23388,26707 22954,26520 22516,27043 22199,27173 21882,27304 20147,27509 19625,27509 19102,27509 18935,27994 18655,27938 18219,27851 17387,27496 17126,27460 17025,27437 16926,27440 16848,27498 L 16189,26635 C 16289,26664 16390,26686 16482,26699 16619,26719 16756,26724 16891,26723 17041,26718 17172,26694 17307,26665 17574,26605 17834,26515 18083,26390 18146,26359 18207,26325 18267,26288 18298,26270 18328,26251 18357,26231 18387,26211 18418,26190 18439,26178 18526,26118 18637,26066 18748,26017 18972,25919 19213,25836 19456,25754 19701,25671 19946,25596 20201,25496 L 20250,25477 20301,25453 C 20310,25448 20317,25446 20328,25440 L 20360,25422 C 20379,25410 20398,25397 20415,25384 20481,25332 20531,25278 20576,25220 20666,25106 20736,24984 20790,24854 20841,24724 20884,24587 20880,24440 20877,24368 20862,24292 20822,24229 20779,24167 20716,24127 20651,24114 20706,24151 20747,24202 20761,24258 20776,24313 20771,24372 20757,24429 20728,24543 20669,24652 20598,24751 20528,24850 20447,24943 20361,25021 20318,25059 20273,25095 20232,25117 20221,25123 20212,25127 20203,25131 L 20173,25140 C 20147,25148 20120,25156 20089,25164 19848,25224 19588,25280 19334,25349 19078,25418 18823,25498 18568,25607 18441,25664 18315,25725 18188,25814 18154,25837 18132,25853 18108,25871 18084,25888 18060,25905 18035,25921 17986,25955 17933,25985 17882,26017 17672,26139 17443,26241 17210,26326 17095,26368 16973,26407 16864,26430 16739,26452 16615,26471 16491,26479 16320,26495 16135,26475 15942,26433 L 15675,26365 15508,26322 15951,27117 17388,28321 17463,28458 C 16949,28088 16373,27688 15659,27123 13272,25233 12327,24164 10984,22473 9660,20806 8579,18995 8548,18229 8597,18275 8664,18330 8750,18390 8879,18543 9071,18749 9317,18953 9327,19030 9342,19103 9360,19169 9389,19274 9425,19370 9462,19465 9538,19653 9627,19826 9719,19997 9907,20334 10114,20653 10332,20962 10767,21580 11241,22164 11736,22727 12233,23288 12751,23829 13293,24344 13833,24860 13784,24669 13231,24055 12790,23565 12369,23057 11966,22537 11515,21949 11088,21344 10706,20717 10516,20404 10338,20084 10184,19759 10160,19706 10137,19652 10113,19599 10120,19603 10126,19607 10133,19611 10157,19624 10182,19637 10208,19649 L 10264,19527 C 10309,19545 10353,19561 10399,19576 L 10355,19707 C 10471,19745 10598,19773 10734,19788 L 10748,19668 C 10784,19675 10821,19681 10858,19686 10870,19688 10881,19689 10892,19690 L 10887,19800 C 10920,19802 10953,19802 10986,19802 11080,19800 11178,19796 11270,19784 L 11259,19697 C 11309,19693 11358,19685 11406,19676 L 11423,19759 C 11561,19730 11686,19687 11795,19632 L 11758,19560 C 11805,19537 11849,19513 11892,19486 L 11936,19543 C 12020,19479 12112,19387 12211,19271 L 12188,19250 C 12224,19215 12257,19178 12289,19140 L 12307,19154 C 12376,19065 12450,18964 12526,18853 L 12502,18837 C 12528,18792 12551,18749 12572,18706 L 12608,18730 C 12673,18630 12739,18525 12804,18416 L 12704,18357 C 12721,18290 12728,18238 12724,18211 12724,18206 12722,18201 12719,18197 L 12879,18289 C 12883,18281 12888,18274 12892,18266 13000,18292 13121,18276 13207,18257 L 14275,20864 14566,21574 C 14613,21691 14665,21812 14709,21926 14715,21943 14720,21961 14726,21978 14887,23010 15065,25175 15193,25513 15349,25923 15653,26352 15672,26147 15683,26024 15396,24660 15165,23586 15098,23142 15025,22700 14932,22259 14906,22134 14876,22008 14841,21882 14802,21754 14762,21636 14723,21514 L 14484,20785 13715,18429 C 13717,18420 13718,18408 13719,18394 13727,18266 13661,18114 13560,17956 L 13532,17870 13508,17878 C 13271,17537 12903,17177 12774,16953 12176,15906 8171,15891 6373,14809 6109,14240 5850,13678 5749,13456 5571,13068 5245,10087 5262,8138 5400,7904 5686,7591 6126,7292 5929,9427 6034,13707 7154,14267 8395,14888 9821,14946 10304,15121 9371,14581 7573,14080 7362,13456 7006,12404 6504,8836 7289,6716 7839,6525 8498,6389 9272,6365 9674,6403 10410,6306 11999,6075 13308,5884 14792,5668 15506,5686 16359,5708 16715,6010 17938,7161 18321,7520 18796,7967 19382,8483 20275,9270 21087,9494 21816,9635 22869,10395 24510,11865 24930,12838 24772,12934 24414,13092 23596,13312 22742,13541 21644,13773 20582,13997 19082,14313 17666,14611 17052,14879 16546,15100 16219,15390 16006,15705 15698,16014 15326,16651 15298,17100 15280,17399 15597,19003 15746,19787 15864,20406 15874,18372 16334,17347 16475,17225 16657,17125 16902,17238 17274,17408 18087,17351 18597,17260 18801,17435 19116,17566 19484,17659 19508,17682 19533,17706 19559,17731 L 19477,17811 C 19567,17902 19663,17989 19762,18070 L 19832,17984 C 19880,18028 19919,18063 19942,18086 L 19884,18164 C 19987,18240 20095,18312 20205,18376 L 20236,18325 C 20277,18352 20320,18379 20364,18405 L 20340,18451 C 20452,18510 20570,18564 20689,18612 L 20706,18569 C 20753,18588 20800,18606 20849,18622 L 20833,18666 C 20952,18708 21075,18746 21200,18777 L 21213,18726 C 21262,18737 21311,18747 21361,18757 L 21350,18811 C 21472,18837 21599,18859 21727,18874 L 21735,18809 C 21785,18814 21835,18818 21885,18821 L 21879,18891 C 22004,18902 22132,18909 22260,18910 L 22261,18829 C 22311,18829 22361,18827 22412,18824 L 22413,18910 C 22540,18908 22668,18900 22794,18889 L 22785,18792 C 22834,18786 22884,18779 22933,18771 L 22946,18872 C 23079,18855 23206,18833 23324,18807 L 23300,18699 C 23348,18688 23396,18675 23444,18662 L 23475,18769 C 23594,18735 23717,18685 23841,18622 L 23803,18549 C 23851,18531 23898,18512 23945,18491 L 23977,18546 C 24082,18484 24189,18411 24296,18329 L 24283,18311 C 24327,18284 24369,18256 24412,18227 L 24417,18233 C 24438,18215 24459,18196 24481,18177 25522,17417 26208,16041 26576,15734 27023,15361 27564,15958 27799,16729 28182,17982 28466,18893 26899,22808 28086,21250 28828,19669 29227,18672 29584,20349 29227,22136 28685,23190 L 28731,23213 Z"
     id="path154" /><path
     fill="rgb(246,249,212)"
     stroke="none"
     d="M 15858,28790 C 16319,27721 17033,31949 22649,32323 21319,32810 19908,33126 18442,33247 17565,32240 15468,29694 15858,28790 Z"
     id="path161" /><path
     fill="rgb(246,249,212)"
     stroke="none"
     d="M 12743,18076 C 12729,18101 12711,18133 12689,18171 12460,18061 11178,18354 10586,18460 10260,18519 9744,18451 9248,18337 L 8543,18135 C 8411,17968 8323,17842 8366,17672 8804,17709 9324,17695 9860,17681 10966,17653 12106,17623 12679,18008 12704,18032 12726,18054 12743,18076 Z"
     id="path168" /><path
     fill="rgb(246,249,212)"
     stroke="none"
     d="M 8254,17513 C 8121,17340 7958,17173 7793,17017 8281,17132 8908,16881 10407,16926 10607,17131 10796,17359 10831,17517 10512,17515 10183,17524 9856,17532 9270,17548 8703,17562 8254,17513 Z"
     id="path175" /><path
     fill="rgb(120,75,4)"
     stroke="none"
     d="M 16329,32218 L 15945,31957 15575,31678 C 15328,31492 15079,31307 14836,31115 L 14125,30517 C 13197,29698 12303,28831 11505,27879 11404,27761 11298,27648 11201,27526 L 10911,27162 10622,26797 C 10574,26735 10525,26675 10478,26613 L 10342,26424 9798,25668 9286,24889 C 8622,23839 8026,22746 7498,21621 L 7121,20769 C 7001,20482 6889,20192 6772,19905 6744,19832 6714,19761 6687,19688 L 6607,19469 6449,19031 C 6339,18740 6248,18444 6153,18148 5780,16965 5469,15761 5243,14541 5014,13322 4855,12089 4789,10851 L 4769,10387 C 4763,10232 4763,10077 4760,9922 L 4756,9690 4759,9458 C 4762,9303 4760,9148 4770,8993 4791,8473 4828,7950 4933,7440 L 4951,7419 C 4942,7482 4936,7547 4928,7611 4906,7763 4902,7918 4890,8071 4880,8225 4880,8379 4874,8533 4869,8687 4873,8841 4873,8995 4882,9610 4912,10226 4971,10838 4982,10992 5001,11145 5017,11298 5034,11450 5048,11603 5067,11756 L 5129,12213 5160,12442 5196,12670 C 5246,12973 5290,13277 5349,13579 L 5433,14033 C 5462,14184 5496,14334 5527,14484 5785,15686 6100,16875 6488,18039 6873,19205 7316,20353 7836,21464 8871,23689 10166,25796 11728,27692 11925,27927 12118,28167 12320,28398 L 12942,29078 13097,29249 C 13150,29305 13205,29358 13259,29413 L 13585,29739 C 13803,29956 14016,30178 14248,30381 L 14929,31004 C 15162,31206 15403,31398 15638,31597 L 15993,31893 16362,32172 17099,32733 16329,32218 Z"
     id="path182" /><path
     fill="rgb(120,75,4)"
     stroke="none"
     d="M 9019,28195 C 7699,26217 6643,24065 5843,21826 5445,20706 5100,19568 4815,18414 L 4613,17547 4434,16675 C 4378,16384 4327,16091 4275,15799 4226,15506 4185,15212 4139,14919 3970,13744 3864,12560 3826,11375 3807,10782 3809,10188 3838,9596 3853,9309 3872,9021 3905,8735 3926,8707 3946,8680 3967,8652 3966,8673 3965,8694 3963,8714 3946,9009 3939,9304 3940,9599 3943,10188 3963,10778 4008,11366 4088,12542 4233,13713 4426,14875 4624,16036 4858,17190 5157,18329 5451,19468 5794,20595 6194,21700 6387,22256 6607,22801 6827,23346 L 7179,24155 C 7298,24424 7430,24686 7553,24953 8064,26012 8632,27043 9263,28036 9901,29024 10595,29975 11350,30880 12106,31766 12922,32596 13785,33384 13783,33384 13780,33383 13778,33383 12864,32658 12010,31857 11213,31001 10419,30118 9685,29180 9019,28195 Z"
     id="path189" /><path
     fill="rgb(120,75,4)"
     stroke="none"
     d="M 2852,10813 C 2801,14347 3631,21454 5187,25418 6387,28473 8575,30576 10523,31907 9957,31654 9408,31370 8878,31057 2156,25850 2237,15682 2852,10813 Z"
     id="path196" /><path
     fill="rgb(120,75,4)"
     stroke="none"
     d="M 2004,11209 C 1412,14798 1031,20672 3423,25780 1823,23269 895,20290 895,17100 895,15023 1289,13036 2004,11209 Z"
     id="path203" /><path
     fill="rgb(255,0,0)"
     stroke="none"
     d="M 12294,1872 L 12338,1844 12301,1890 10277,4356 9889,4829 8086,5211 6196,5612 12294,1872 Z"
     id="path210" /><path
     fill="rgb(255,0,0)"
     stroke="none"
     d="M 21641,1544 C 20911,2407 18703,5048 18363,5822 17375,4910 16740,4449 15538,4418 14716,4398 13242,4612 11816,4820 11648,4844 11468,4870 11285,4896 12415,4007 14527,1946 15513,973 16035,922 16564,895 17100,895 18675,895 20199,1123 21641,1544 Z"
     id="path217" /><path
     fill="rgb(246,249,212)"
     stroke="none"
     d="M 17498,15479 C 17898,15210 18703,14882 19341,14643 19758,14551 20205,14457 20659,14361 23245,13817 24689,13479 25202,13100 25263,13447 25074,13662 25009,13943 24785,14540 19998,15386 19214,15722 18631,15972 17951,15590 17498,15479 Z"
     id="path224" /><path
     fill="rgb(246,249,212)"
     stroke="none"
     d="M 19065,16555 C 19538,15908 20383,15809 21453,15585 22522,15361 24760,14926 24885,15218 24916,15292 24956,15407 24981,15543 24917,15578 24838,15625 24736,15685 24274,15956 23500,16410 22758,16601 22162,16754 20067,16824 19047,16576 19053,16569 19060,16562 19065,16555 Z"
     id="path231" /><path
     fill="rgb(246,249,212)"
     stroke="none"
     d="M 20907,16886 C 21726,16886 22499,16821 22795,16745 23558,16549 24342,16089 24811,15813 24876,15775 24942,15737 25001,15703 25010,15835 25001,15977 24956,16116 24841,16325 24648,16685 23983,17046 23435,17356 22416,17553 21277,17554 L 21271,17554 C 21014,17554 20768,17543 20535,17524 20347,17501 20159,17478 19987,17459 19567,17391 19220,17290 18983,17162 18874,17041 18823,16822 18976,16710 19474,16838 20206,16886 20907,16886 Z"
     id="path238" /><path
     fill="rgb(255,0,0)"
     stroke="none"
     d="M 25270,10042 C 24245,8789 23246,8607 22345,8443 21799,8345 21309,8255 20785,7945 21347,6712 22415,3192 22963,1994 24388,2549 25716,3301 26913,4215 26447,5613 25753,8674 25270,10042 Z"
     id="path245" /><path
     fill="#100f0d"
     stroke="none"
     d="m 10305,15122 c 79,29 133,60 157,97 -48,-32 -101,-65 -157,-97 z m 22828,-368 c 112,767 171,1550 171,2347 0,2221 -450,4340 -1264,6271 112,-980 329,-3004 357,-4239 z m -234,-1257 -741,4468 c -114,-93 -268,-182 -443,-266 -50,-1207 -262,-6419 -337,-8254 678,1261 1195,2620 1521,4052 z m -4091,-596 c -518,-210 -1069,-434 -1556,-699 l 291,-7481 c 1169,988 2197,2138 3048,3415 10,1069 25,3696 -58,5613 -439,-327 -1053,-576 -1725,-848 z m -76,10313 c -973,2035 -2714,5190 -2976,5676 -348,647 -1018,1716 -2678,2264 -937,173 -2549,284 -3415,-734 -255,-301 -497,-555 -734,-783 31,-12 61,-25 91,-38 47,23 98,46 153,71 10,8 20,15 30,23 86,66 171,143 256,224 169,161 335,334 514,501 89,83 183,164 284,240 l 77,56 84,51 c 26,18 61,30 91,45 32,13 64,29 95,36 248,77 491,99 735,111 486,15 970,-30 1438,-146 467,-112 924,-305 1288,-615 -384,286 -843,444 -1307,524 -465,84 -941,95 -1406,51 -231,-26 -465,-66 -669,-144 -27,-8 -47,-21 -70,-32 -22,-13 -45,-20 -67,-38 l -66,-47 -64,-53 c -85,-73 -167,-153 -247,-239 -88,-93 -174,-190 -261,-288 155,38 313,63 464,67 746,18 1734,-454 1921,-734 187,-280 541,-1996 541,-1996 0,0 -578,959 -1623,1574 -966,570 -2029,271 -2758,90 -329,-174 -612,-394 -835,-597 l -551,-599 c 0,0 659,250 790,334 50,32 780,411 1470,448 690,37 2891,-944 3078,-1069 187,-125 569,-815 984,-740 -434,-187 -872,336 -1189,466 -317,131 -2052,336 -2574,336 -523,0 -690,485 -970,429 -436,-87 -1268,-442 -1529,-478 -101,-23 -200,-20 -278,38 l -659,-863 c 100,29 201,51 293,64 137,20 274,25 409,24 150,-5 281,-29 416,-58 267,-60 527,-150 776,-275 63,-31 124,-65 184,-102 31,-18 61,-37 90,-57 30,-20 61,-41 82,-53 87,-60 198,-112 309,-161 224,-98 465,-181 708,-263 245,-83 490,-158 745,-258 l 49,-19 51,-24 c 9,-5 16,-7 27,-13 l 32,-18 c 19,-12 38,-25 55,-38 66,-52 116,-106 161,-164 90,-114 160,-236 214,-366 51,-130 94,-267 90,-414 -3,-72 -18,-148 -58,-211 -43,-62 -106,-102 -171,-115 55,37 96,88 110,144 15,55 10,114 -4,171 -29,114 -88,223 -159,322 -70,99 -151,192 -237,270 -43,38 -88,74 -129,96 -11,6 -20,10 -29,14 l -30,9 c -26,8 -53,16 -84,24 -241,60 -501,116 -755,185 -256,69 -511,149 -766,258 -127,57 -253,118 -380,207 -34,23 -56,39 -80,57 -24,17 -48,34 -73,50 -49,34 -102,64 -153,96 -210,122 -439,224 -672,309 -115,42 -237,81 -346,104 -125,22 -249,41 -373,49 -171,16 -356,-4 -549,-46 l -267,-68 v 0 l -167,-43 443,795 1437,1204 75,137 c -514,-370 -1090,-770 -1804,-1335 -2387,-1890 -3332,-2959 -4675,-4650 -1324,-1667 -2405,-3478 -2436,-4244 49,46 116,101 202,161 129,153 321,359 567,563 10,77 25,150 43,216 29,105 65,201 102,296 76,188 165,361 257,532 188,337 395,656 613,965 435,618 909,1202 1404,1765 497,561 1015,1102 1557,1617 540,516 491,325 -62,-289 -441,-490 -862,-998 -1265,-1518 -451,-588 -878,-1193 -1260,-1820 -190,-313 -368,-633 -522,-958 -24,-53 -47,-107 -71,-160 7,4 13,8 20,12 24,13 49,26 75,38 l 56,-122 c 45,18 89,34 135,49 l -44,131 c 116,38 243,66 379,81 l 14,-120 c 36,7 73,13 110,18 12,2 23,3 34,4 l -5,110 c 33,2 66,2 99,2 94,-2 192,-6 284,-18 l -11,-87 c 50,-4 99,-12 147,-21 l 17,83 c 138,-29 263,-72 372,-127 l -37,-72 c 47,-23 91,-47 134,-74 l 44,57 c 84,-64 176,-156 275,-272 l -23,-21 c 36,-35 69,-72 101,-110 l 18,14 c 69,-89 143,-190 219,-301 l -24,-16 c 26,-45 49,-88 70,-131 l 36,24 c 65,-100 131,-205 196,-314 l -100,-59 c 17,-67 24,-119 20,-146 0,-5 -2,-10 -5,-14 l 160,92 c 4,-8 9,-15 13,-23 108,26 229,10 315,-9 l 1068,2607 291,710 c 47,117 99,238 143,352 6,17 11,35 17,52 161,1032 339,3197 467,3535 156,410 460,839 479,634 11,-123 -276,-1487 -507,-2561 -67,-444 -140,-886 -233,-1327 -26,-125 -56,-251 -91,-377 -39,-128 -79,-246 -118,-368 l -239,-729 -769,-2356 c 2,-9 3,-21 4,-35 8,-128 -58,-280 -159,-438 l -28,-86 -24,8 c -237,-341 -605,-701 -734,-925 -598,-1047 -4603,-1062 -6401,-2144 -264,-569 -523,-1131 -624,-1353 -178,-388 -504,-3369 -487,-5318 138,-234 424,-547 864,-846 -197,2135 -92,6415 1028,6975 1241,621 2667,679 3150,854 -933,-540 -2731,-1041 -2942,-1665 -356,-1052 -858,-4620 -73,-6740 550,-191 1209,-327 1983,-351 402,38 1138,-59 2727,-290 1309,-191 2793,-407 3507,-389 853,22 1209,324 2432,1475 383,359 858,806 1444,1322 893,787 1705,1011 2434,1152 1053,760 2694,2230 3114,3203 -158,96 -516,254 -1334,474 -854,229 -1952,461 -3014,685 -1500,316 -2916,614 -3530,882 -506,221 -833,511 -1046,826 -308,309 -680,946 -708,1395 -18,299 299,1903 448,2687 118,619 128,-1415 588,-2440 141,-122 323,-222 568,-109 372,170 1185,113 1695,22 204,175 519,306 887,399 24,23 49,47 75,72 l -82,80 c 90,91 186,178 285,259 l 70,-86 c 48,44 87,79 110,102 l -58,78 c 103,76 211,148 321,212 l 31,-51 c 41,27 84,54 128,80 l -24,46 c 112,59 230,113 349,161 l 17,-43 c 47,19 94,37 143,53 l -16,44 c 119,42 242,80 367,111 l 13,-51 c 49,11 98,21 148,31 l -11,54 c 122,26 249,48 377,63 l 8,-65 c 50,5 100,9 150,12 l -6,70 c 125,11 253,18 381,19 l 1,-81 c 50,0 100,-2 151,-5 l 1,86 c 127,-2 255,-10 381,-21 l -9,-97 c 49,-6 99,-13 148,-21 l 13,101 c 133,-17 260,-39 378,-65 l -24,-108 c 48,-11 96,-24 144,-37 l 31,107 c 119,-34 242,-84 366,-147 l -38,-73 c 48,-18 95,-37 142,-58 l 32,55 c 105,-62 212,-135 319,-217 l -13,-18 c 44,-27 86,-55 129,-84 l 5,6 c 21,-18 42,-37 64,-56 1041,-760 1727,-2136 2095,-2443 447,-373 988,224 1223,995 383,1253 667,2164 -900,6079 1187,-1558 1929,-3139 2328,-4136 357,1677 0,3464 -542,4518 z m -12873,5577 c 461,-1069 1175,3159 6791,3533 -1330,487 -2741,803 -4207,924 -877,-1007 -2974,-3553 -2584,-4457 z M 12744,18077 c -14,25 -32,57 -54,95 -229,-110 -1511,183 -2103,289 -326,59 -842,-9 -1338,-123 l -705,-202 c -132,-167 -220,-293 -177,-463 438,37 958,23 1494,9 1106,-28 2246,-58 2819,327 25,24 47,46 64,68 z m -4489,-563 c -133,-173 -296,-340 -461,-496 488,115 1115,-136 2614,-91 200,205 389,433 424,591 -319,-2 -648,7 -975,15 -586,16 -1153,30 -1602,-19 z m 8075,14705 -384,-261 -370,-279 c -247,-186 -496,-371 -739,-563 l -711,-598 c -928,-819 -1822,-1686 -2620,-2638 -101,-118 -207,-231 -304,-353 l -290,-364 -289,-365 c -48,-62 -97,-122 -144,-184 l -136,-189 -544,-756 -512,-779 C 8623,23840 8027,22747 7499,21622 l -377,-852 c -120,-287 -232,-577 -349,-864 -28,-73 -58,-144 -85,-217 l -80,-219 -158,-438 c -110,-291 -201,-587 -296,-883 -373,-1183 -684,-2387 -910,-3607 -229,-1219 -388,-2452 -454,-3690 l -20,-464 c -6,-155 -6,-310 -9,-465 l -4,-232 3,-232 c 3,-155 1,-310 11,-465 21,-520 58,-1043 163,-1553 6,-7 12,-14 18,-21 -9,63 -15,128 -23,192 -22,152 -26,307 -38,460 -10,154 -10,308 -16,462 -5,154 -1,308 -1,462 9,615 39,1231 98,1843 11,154 30,307 46,460 17,152 31,305 50,458 l 62,457 31,229 36,228 c 50,303 94,607 153,909 l 84,454 c 29,151 63,301 94,451 258,1202 573,2391 961,3555 385,1166 828,2314 1348,3425 1035,2225 2330,4332 3892,6228 197,235 390,475 592,706 l 622,680 155,171 c 53,56 108,109 162,164 l 326,326 c 218,217 431,439 663,642 l 681,623 c 233,202 474,394 709,593 l 355,296 369,279 738,561 z M 9020,28196 C 7700,26218 6644,24066 5844,21827 5446,20707 5101,19569 4816,18415 l -202,-867 -179,-872 c -56,-291 -107,-584 -159,-876 -49,-293 -90,-587 -136,-880 -169,-1175 -275,-2359 -313,-3544 -19,-593 -17,-1187 12,-1779 15,-287 34,-575 67,-861 21,-28 41,-55 62,-83 -1,21 -2,42 -4,62 -17,295 -24,590 -23,885 3,589 23,1179 68,1767 80,1176 225,2347 418,3509 198,1161 432,2315 731,3454 294,1139 637,2266 1037,3371 193,556 413,1101 633,1646 l 352,809 c 119,269 251,531 374,798 511,1059 1079,2090 1710,3083 638,988 1332,1939 2087,2844 766,897 1594,1738 2469,2535 -929,-733 -1797,-1545 -2606,-2414 -794,-883 -1528,-1821 -2194,-2806 z M 2853,10814 c -51,3534 779,10641 2335,14605 1200,3055 3388,5158 5336,6489 -566,-253 -1115,-537 -1645,-850 C 2157,25851 2238,15683 2853,10814 Z m -848,396 C 1413,14799 1032,20673 3424,25781 1824,23270 896,20291 896,17101 c 0,-2077 394,-4064 1109,-5891 z m 10290,-9337 44,-28 -37,46 -2024,2466 -388,473 -1803,382 -1890,401 z m 9347,-328 c -730,863 -2938,3504 -3278,4278 -988,-912 -1623,-1373 -2825,-1404 -822,-20 -2296,194 -3722,402 -168,24 -348,50 -531,76 1130,-889 3242,-2950 4228,-3923 522,-51 1051,-78 1587,-78 1575,0 3099,228 4541,649 z m -4143,13935 c 400,-269 1205,-597 1843,-836 417,-92 864,-186 1318,-282 2586,-544 4030,-882 4543,-1261 61,347 -193,843 -193,843 -224,597 -5011,1443 -5795,1779 -583,250 -1263,-132 -1716,-243 z m 1567,1076 c 473,-647 1318,-746 2388,-970 1069,-224 3307,-659 3432,-367 31,74 71,189 96,325 -64,35 -143,82 -245,142 -462,271 -1236,725 -1978,916 -596,153 -2691,223 -3711,-25 6,-7 13,-14 18,-21 z m 1842,331 c 819,0 1592,-65 1888,-141 763,-196 1547,-656 2016,-932 65,-38 131,-76 190,-110 9,132 0,274 -45,413 -115,209 -308,569 -973,930 -548,310 -1567,507 -2706,508 h -6 c -257,0 -503,-11 -736,-30 -188,-23 -376,-46 -548,-65 -420,-68 -767,-169 -1004,-297 -109,-121 -160,-340 -7,-452 498,128 1230,176 1931,176 z m 4363,-6844 C 24246,8790 23247,8608 22346,8444 c -546,-98 -1036,-188 -1560,-498 562,-1233 1630,-4753 2178,-5951 1425,555 2753,1307 3950,2221 -466,1398 -1160,4459 -1643,5827 z M 17101,1 C 12533,1 8239,1780 5009,5009 1780,8239 1,12533 1,17101 c 0,4566 1779,8860 5008,12090 3230,3229 7524,5008 12092,5008 4566,0 8860,-1779 12090,-5008 3229,-3230 5008,-7524 5008,-12090 0,-4568 -1779,-8862 -5008,-12092 C 25961,1780 21667,1 17101,1 Z"
     id="path252"
     style="display:inline" /></g>
</svg>
